<svg width="21" height="25" viewBox="0 0 21 25" fill="none" xmlns="http://www.w3.org/2000/svg">
<path d="M17.1748 23.0399C15.8874 24.3023 14.4669 24.1055 13.113 23.5103C11.6736 22.9031 10.3576 22.8647 8.83743 23.5103C6.9443 24.3359 5.93954 24.0959 4.79939 23.0399C-1.63772 16.3439 -0.687595 6.14391 6.62838 5.75991C8.40275 5.85591 9.64504 6.75111 10.6902 6.82551C12.2436 6.50631 13.7306 5.59191 15.3933 5.71191C17.3909 5.87511 18.885 6.67191 19.8827 8.10471C15.7734 10.6007 16.7472 16.0727 20.5216 17.6087C19.7663 19.6127 18.7971 21.5927 17.1724 23.0567L17.1748 23.0399ZM10.5477 5.68791C10.3553 2.71192 12.7425 0.263925 15.4883 0.0239258C15.866 3.45592 12.4004 6.02391 10.5477 5.68791Z" fill="white"/>
</svg>
