<svg width="24" height="24" viewBox="0 0 24 24" fill="none" xmlns="http://www.w3.org/2000/svg">
<path d="M12 24C18.6274 24 24 18.6274 24 12C24 5.37258 18.6274 0 12 0C5.37258 0 0 5.37258 0 12C0 18.6274 5.37258 24 12 24Z" fill="#F0F0F0"/>
<path d="M2.48063 4.69434C1.53802 5.92073 0.827251 7.33424 0.413391 8.86982H6.65611L2.48063 4.69434Z" fill="#0052B4"/>
<path d="M23.5866 8.86977C23.1728 7.33424 22.4619 5.92073 21.5194 4.69434L17.344 8.86977H23.5866Z" fill="#0052B4"/>
<path d="M0.413391 15.1309C0.827297 16.6664 1.53806 18.0799 2.48063 19.3063L6.65597 15.1309H0.413391Z" fill="#0052B4"/>
<path d="M19.3059 2.48086C18.0795 1.53825 16.666 0.82748 15.1304 0.413574V6.65625L19.3059 2.48086Z" fill="#0052B4"/>
<path d="M4.69415 21.5196C5.92054 22.4622 7.33406 23.173 8.86959 23.5869V17.3442L4.69415 21.5196Z" fill="#0052B4"/>
<path d="M8.86954 0.413574C7.33401 0.82748 5.9205 1.53825 4.69415 2.48081L8.86954 6.6562V0.413574Z" fill="#0052B4"/>
<path d="M15.1304 23.5869C16.666 23.173 18.0795 22.4622 19.3058 21.5196L15.1304 17.3442V23.5869Z" fill="#0052B4"/>
<path d="M17.344 15.1309L21.5194 19.3063C22.4619 18.08 23.1728 16.6664 23.5866 15.1309H17.344Z" fill="#0052B4"/>
<path d="M23.8984 10.4348H13.5653H13.5653V0.101578C13.0529 0.034875 12.5305 0 12 0C11.4694 0 10.9471 0.034875 10.4348 0.101578V10.4347V10.4347H0.101578C0.034875 10.9471 0 11.4695 0 12C0 12.5306 0.034875 13.0529 0.101578 13.5652H10.4347H10.4347V23.8984C10.9471 23.9651 11.4694 24 12 24C12.5305 24 13.0529 23.9652 13.5652 23.8984V13.5653V13.5653H23.8984C23.9651 13.0529 24 12.5306 24 12C24 11.4695 23.9651 10.9471 23.8984 10.4348Z" fill="#D80027"/>
<path d="M15.1304 15.1304L20.4852 20.4852C20.7315 20.239 20.9665 19.9817 21.1906 19.7148L16.6062 15.1304H15.1304V15.1304Z" fill="#D80027"/>
<path d="M8.86957 15.1304H8.86948L3.51471 20.4851C3.7609 20.7314 4.01829 20.9664 4.2851 21.1905L8.86957 16.6059V15.1304Z" fill="#D80027"/>
<path d="M8.86957 8.8696V8.86951L3.51476 3.51465C3.26848 3.76084 3.03354 4.01823 2.80939 4.28504L7.3939 8.86955H8.86957V8.8696Z" fill="#D80027"/>
<path d="M15.1304 8.86981L20.4853 3.5149C20.2391 3.26862 19.9817 3.03368 19.7149 2.80957L15.1304 7.39409V8.86981Z" fill="#D80027"/>
</svg>
