<svg width="24" height="24" viewBox="0 0 24 24" fill="none" xmlns="http://www.w3.org/2000/svg">
<path d="M15 20.4297H11L6.54999 23.3897C5.88999 23.8297 5 23.3598 5 22.5598V20.4297C2 20.4297 0 18.4297 0 15.4297V9.42969C0 6.42969 2 4.42969 5 4.42969H15C18 4.42969 20 6.42969 20 9.42969V15.4297C20 18.4297 18 20.4297 15 20.4297Z" fill="#FD683D"/>
<path d="M17 18.4302H13L8.54999 21.3902C7.88999 21.8302 7 21.3602 7 20.5602V18.4302C4 18.4302 2 16.4302 2 13.4302V7.43018C2 4.43018 4 2.43018 7 2.43018H17C20 2.43018 22 4.43018 22 7.43018V13.4302C22 16.4302 20 18.4302 17 18.4302Z" stroke="#1D272F" stroke-width="1.5" stroke-miterlimit="10" stroke-linecap="round" stroke-linejoin="round"/>
<path d="M12.0001 11.3599V11.1499C12.0001 10.4699 12.4201 10.1099 12.8401 9.81989C13.2501 9.53989 13.66 9.1799 13.66 8.5199C13.66 7.5999 12.9201 6.85986 12.0001 6.85986C11.0801 6.85986 10.3401 7.5999 10.3401 8.5199" stroke="#1D272F" stroke-width="1.5" stroke-linecap="round" stroke-linejoin="round"/>
<path d="M11.9955 13.75H12.0045" stroke="#1D272F" stroke-width="1.5" stroke-linecap="round" stroke-linejoin="round"/>
</svg>
