<svg width="24" height="24" viewBox="0 0 24 24" fill="none" xmlns="http://www.w3.org/2000/svg">
<path d="M0.14502 9.44209V19.1721C0.14502 21.0721 1.49502 21.8521 3.13502 20.9121L5.48502 19.5721C5.99502 19.2821 6.84502 19.2521 7.37502 19.5221L12.625 22.1521C13.155 22.4121 14.005 22.3921 14.515 22.1021L18.845 19.6221C19.395 19.3021 19.855 18.5221 19.855 17.8821V8.15208C19.855 6.25208 18.505 5.47208 16.865 6.41208L14.515 7.75209C14.005 8.04209 13.155 8.07208 12.625 7.80208L7.37502 5.18208C6.84502 4.92208 5.99502 4.94208 5.48502 5.23208L1.15502 7.71209C0.59502 8.03209 0.14502 8.81209 0.14502 9.44209Z" fill="#FD683D"/>
<path d="M2.29004 7.77998V17.51C2.29004 19.41 3.64004 20.19 5.28004 19.25L7.63004 17.91C8.14004 17.62 8.99004 17.59 9.52004 17.86L14.77 20.49C15.3 20.75 16.15 20.73 16.66 20.44L20.99 17.96C21.54 17.64 22 16.86 22 16.22V6.48998C22 4.58998 20.65 3.80998 19.01 4.74998L16.66 6.08998C16.15 6.37998 15.3 6.40998 14.77 6.13998L9.52004 3.51998C8.99004 3.25998 8.14004 3.27998 7.63004 3.56998L3.30004 6.04998C2.74004 6.36998 2.29004 7.14998 2.29004 7.77998Z" stroke="#1D272F" stroke-width="1.5" stroke-linecap="round" stroke-linejoin="round"/>
<path d="M8.56006 4V17" stroke="#1D272F" stroke-width="1.5" stroke-linecap="round" stroke-linejoin="round"/>
<path d="M15.73 6.62012V20.0001" stroke="#1D272F" stroke-width="1.5" stroke-linecap="round" stroke-linejoin="round"/>
</svg>
