<svg width="24" height="25" viewBox="0 0 24 25" fill="none" xmlns="http://www.w3.org/2000/svg">
<path fill-rule="evenodd" clip-rule="evenodd" d="M11.8699 5.20043C11.8372 5.19094 11.8044 5.18167 11.7715 5.17264C14.2239 5.92676 16.0196 8.21894 16.0196 10.9102V13.8002C16.0196 14.4102 16.2796 15.3402 16.5796 15.8602L17.7296 17.7702C18.3896 18.8702 17.8596 20.3002 16.6496 20.7002C15.4466 21.1021 14.2171 21.3918 12.9759 21.5694C12.732 22.9788 11.4958 24.0596 10.0195 24.0596C9.19952 24.0596 8.43952 23.7196 7.89952 23.1796C7.47387 22.7539 7.17249 22.1916 7.06393 21.5709C5.81912 21.3935 4.58604 21.1032 3.3796 20.7002C2.0796 20.2602 1.5896 18.9502 2.2996 17.7702L3.4496 15.8602C3.7596 15.3402 4.0196 14.4102 4.0196 13.8002V10.9102C4.0196 8.23384 5.77822 5.96286 8.20124 5.19141L8.16991 5.20043C8.45991 4.46043 9.17991 3.94043 10.0199 3.94043C10.8599 3.94043 11.5799 4.46043 11.8699 5.20043Z" fill="#FD683D"/>
<path d="M12.02 2.91016C8.70997 2.91016 6.01997 5.60016 6.01997 8.91016V11.8002C6.01997 12.4102 5.75997 13.3402 5.44997 13.8602L4.29997 15.7702C3.58997 16.9502 4.07997 18.2602 5.37997 18.7002C9.68997 20.1402 14.34 20.1402 18.65 18.7002C19.86 18.3002 20.39 16.8702 19.73 15.7702L18.58 13.8602C18.28 13.3402 18.02 12.4102 18.02 11.8002V8.91016C18.02 5.61016 15.32 2.91016 12.02 2.91016Z" stroke="#1D272F" stroke-width="1.5" stroke-miterlimit="10" stroke-linecap="round"/>
<path d="M13.87 3.19994C13.56 3.10994 13.24 3.03994 12.91 2.99994C11.95 2.87994 11.03 2.94994 10.17 3.19994C10.46 2.45994 11.18 1.93994 12.02 1.93994C12.86 1.93994 13.58 2.45994 13.87 3.19994Z" stroke="#1D272F" stroke-width="1.5" stroke-miterlimit="10" stroke-linecap="round" stroke-linejoin="round"/>
<path d="M15.02 19.0601C15.02 20.7101 13.67 22.0601 12.02 22.0601C11.2 22.0601 10.44 21.7201 9.90002 21.1801C9.36002 20.6401 9.02002 19.8801 9.02002 19.0601" stroke="#1D272F" stroke-width="1.5" stroke-miterlimit="10"/>
</svg>
