<svg width="34" height="46" viewBox="0 0 34 46" fill="none" xmlns="http://www.w3.org/2000/svg">
<path d="M12.93 4.48L7.59 7.45003C6.38 8.12003 5.39001 9.80001 5.39001 11.18V16.83C5.39001 18.21 6.38 19.89 7.59 20.56L12.93 23.53C14.07 24.16 15.94 24.16 17.08 23.53L22.42 20.56C23.63 19.89 24.62 18.21 24.62 16.83V11.18C24.62 9.80001 23.63 8.12003 22.42 7.45003L17.08 4.48C15.93 3.84 14.07 3.84 12.93 4.48Z" fill="#FD683D"/>
<path d="M8.17004 7.43994L17 12.5499L25.77 7.46991" stroke="#1D272F" stroke-width="1.5" stroke-linecap="round" stroke-linejoin="round"/>
<path d="M17 21.61V12.54" stroke="#1D272F" stroke-width="1.5" stroke-linecap="round" stroke-linejoin="round"/>
<path d="M14.93 2.48L9.59 5.45003C8.38 6.12003 7.39001 7.80001 7.39001 9.18001V14.83C7.39001 16.21 8.38 17.89 9.59 18.56L14.93 21.53C16.07 22.16 17.94 22.16 19.08 21.53L24.42 18.56C25.63 17.89 26.62 16.21 26.62 14.83V9.18001C26.62 7.80001 25.63 6.12003 24.42 5.45003L19.08 2.48C17.93 1.84 16.07 1.84 14.93 2.48Z" stroke="#1D272F" stroke-width="1.5" stroke-linecap="round" stroke-linejoin="round"/>
<path d="M22 13.2401V9.58014L12.51 4.1001" stroke="#1D272F" stroke-width="1.5" stroke-linecap="round" stroke-linejoin="round"/>
<path d="M0.492 37.788C0.492 37.108 0.604 36.492 0.828 35.94C1.052 35.38 1.36 34.904 1.752 34.512C2.152 34.12 2.624 33.82 3.168 33.612C3.72 33.396 4.324 33.288 4.98 33.288C5.644 33.28 6.252 33.38 6.804 33.588C7.356 33.788 7.832 34.084 8.232 34.476C8.632 34.868 8.944 35.34 9.168 35.892C9.392 36.444 9.504 37.06 9.504 37.74C9.504 38.404 9.392 39.008 9.168 39.552C8.944 40.096 8.632 40.564 8.232 40.956C7.832 41.348 7.356 41.656 6.804 41.88C6.252 42.096 5.644 42.208 4.98 42.216C4.324 42.216 3.72 42.112 3.168 41.904C2.624 41.688 2.152 41.388 1.752 41.004C1.36 40.612 1.052 40.144 0.828 39.6C0.604 39.056 0.492 38.452 0.492 37.788ZM2.076 37.692C2.076 38.148 2.144 38.568 2.28 38.952C2.424 39.336 2.624 39.668 2.88 39.948C3.136 40.228 3.44 40.448 3.792 40.608C4.152 40.768 4.552 40.848 4.992 40.848C5.432 40.848 5.832 40.768 6.192 40.608C6.552 40.448 6.86 40.228 7.116 39.948C7.372 39.668 7.568 39.336 7.704 38.952C7.848 38.568 7.92 38.148 7.92 37.692C7.92 37.268 7.848 36.872 7.704 36.504C7.568 36.136 7.372 35.816 7.116 35.544C6.86 35.264 6.552 35.048 6.192 34.896C5.832 34.736 5.432 34.656 4.992 34.656C4.552 34.656 4.152 34.736 3.792 34.896C3.44 35.048 3.136 35.264 2.88 35.544C2.624 35.816 2.424 36.136 2.28 36.504C2.144 36.872 2.076 37.268 2.076 37.692ZM10.8121 36.24H12.2521V37.152H12.2761C12.4361 36.816 12.6641 36.556 12.9601 36.372C13.2561 36.188 13.5961 36.096 13.9801 36.096C14.0681 36.096 14.1521 36.104 14.2321 36.12C14.3201 36.136 14.4081 36.156 14.4961 36.18V37.572C14.3761 37.54 14.2561 37.516 14.1361 37.5C14.0241 37.476 13.9121 37.464 13.8001 37.464C13.4641 37.464 13.1921 37.528 12.9841 37.656C12.7841 37.776 12.6281 37.916 12.5161 38.076C12.4121 38.236 12.3401 38.396 12.3001 38.556C12.2681 38.716 12.2521 38.836 12.2521 38.916V42H10.8121V36.24ZM19.8252 41.136H19.8012C19.5932 41.488 19.3132 41.744 18.9612 41.904C18.6092 42.064 18.2292 42.144 17.8212 42.144C17.3732 42.144 16.9732 42.068 16.6212 41.916C16.2772 41.756 15.9812 41.54 15.7332 41.268C15.4852 40.996 15.2972 40.676 15.1692 40.308C15.0412 39.94 14.9772 39.544 14.9772 39.12C14.9772 38.696 15.0452 38.3 15.1812 37.932C15.3172 37.564 15.5052 37.244 15.7452 36.972C15.9932 36.7 16.2892 36.488 16.6332 36.336C16.9772 36.176 17.3532 36.096 17.7612 36.096C18.0332 36.096 18.2732 36.124 18.4812 36.18C18.6892 36.236 18.8732 36.308 19.0332 36.396C19.1932 36.484 19.3292 36.58 19.4412 36.684C19.5532 36.78 19.6452 36.876 19.7172 36.972H19.7532V32.928H21.1932V42H19.8252V41.136ZM16.4172 39.12C16.4172 39.344 16.4532 39.56 16.5252 39.768C16.6052 39.976 16.7172 40.16 16.8612 40.32C17.0132 40.48 17.1932 40.608 17.4012 40.704C17.6092 40.8 17.8452 40.848 18.1092 40.848C18.3732 40.848 18.6092 40.8 18.8172 40.704C19.0252 40.608 19.2012 40.48 19.3452 40.32C19.4972 40.16 19.6092 39.976 19.6812 39.768C19.7612 39.56 19.8012 39.344 19.8012 39.12C19.8012 38.896 19.7612 38.68 19.6812 38.472C19.6092 38.264 19.4972 38.08 19.3452 37.92C19.2012 37.76 19.0252 37.632 18.8172 37.536C18.6092 37.44 18.3732 37.392 18.1092 37.392C17.8452 37.392 17.6092 37.44 17.4012 37.536C17.1932 37.632 17.0132 37.76 16.8612 37.92C16.7172 38.08 16.6052 38.264 16.5252 38.472C16.4532 38.68 16.4172 38.896 16.4172 39.12ZM23.9758 39.624C24.0238 40.056 24.1918 40.392 24.4798 40.632C24.7678 40.872 25.1158 40.992 25.5238 40.992C25.8838 40.992 26.1838 40.92 26.4238 40.776C26.6718 40.624 26.8878 40.436 27.0718 40.212L28.1038 40.992C27.7678 41.408 27.3918 41.704 26.9758 41.88C26.5598 42.056 26.1238 42.144 25.6678 42.144C25.2358 42.144 24.8278 42.072 24.4438 41.928C24.0598 41.784 23.7278 41.58 23.4478 41.316C23.1678 41.052 22.9438 40.736 22.7758 40.368C22.6158 39.992 22.5358 39.576 22.5358 39.12C22.5358 38.664 22.6158 38.252 22.7758 37.884C22.9438 37.508 23.1678 37.188 23.4478 36.924C23.7278 36.66 24.0598 36.456 24.4438 36.312C24.8278 36.168 25.2358 36.096 25.6678 36.096C26.0678 36.096 26.4318 36.168 26.7598 36.312C27.0958 36.448 27.3798 36.648 27.6118 36.912C27.8518 37.176 28.0358 37.504 28.1638 37.896C28.2998 38.28 28.3678 38.724 28.3678 39.228V39.624H23.9758ZM26.9278 38.544C26.9198 38.12 26.7878 37.788 26.5318 37.548C26.2758 37.3 25.9198 37.176 25.4638 37.176C25.0318 37.176 24.6878 37.3 24.4318 37.548C24.1838 37.796 24.0318 38.128 23.9758 38.544H26.9278ZM29.7144 36.24H31.1544V37.152H31.1784C31.3384 36.816 31.5664 36.556 31.8624 36.372C32.1584 36.188 32.4984 36.096 32.8824 36.096C32.9704 36.096 33.0544 36.104 33.1344 36.12C33.2224 36.136 33.3104 36.156 33.3984 36.18V37.572C33.2784 37.54 33.1584 37.516 33.0384 37.5C32.9264 37.476 32.8144 37.464 32.7024 37.464C32.3664 37.464 32.0944 37.528 31.8864 37.656C31.6864 37.776 31.5304 37.916 31.4184 38.076C31.3144 38.236 31.2424 38.396 31.2024 38.556C31.1704 38.716 31.1544 38.836 31.1544 38.916V42H29.7144V36.24Z" fill="#191D31"/>
</svg>
