<svg width="25" height="24" viewBox="0 0 25 24" fill="none" xmlns="http://www.w3.org/2000/svg">
<path d="M3.5 24H5.5C7.5 24 8.5 23 8.5 21V19C8.5 17 7.5 16 5.5 16H3.5C1.5 16 0.5 17 0.5 19V21C0.5 23 1.5 24 3.5 24Z" fill="#FD683D"/>
<path d="M15.5 24H17.5C19.5 24 20.5 23 20.5 21V19C20.5 17 19.5 16 17.5 16H15.5C13.5 16 12.5 17 12.5 19V21C12.5 23 13.5 24 15.5 24Z" fill="#FD683D"/>
<path d="M15.5 12H17.5C19.5 12 20.5 11 20.5 9V7C20.5 5 19.5 4 17.5 4H15.5C13.5 4 12.5 5 12.5 7V9C12.5 11 13.5 12 15.5 12Z" fill="#FD683D"/>
<path d="M3.5 12H5.5C7.5 12 8.5 11 8.5 9V7C8.5 5 7.5 4 5.5 4H3.5C1.5 4 0.5 5 0.5 7V9C0.5 11 1.5 12 3.5 12Z" fill="#FD683D"/>
<path d="M5.5 10H7.5C9.5 10 10.5 9 10.5 7V5C10.5 3 9.5 2 7.5 2H5.5C3.5 2 2.5 3 2.5 5V7C2.5 9 3.5 10 5.5 10Z" stroke="#1D272F" stroke-width="1.5" stroke-miterlimit="10" stroke-linecap="round" stroke-linejoin="round"/>
<path d="M17.5 10H19.5C21.5 10 22.5 9 22.5 7V5C22.5 3 21.5 2 19.5 2H17.5C15.5 2 14.5 3 14.5 5V7C14.5 9 15.5 10 17.5 10Z" stroke="#1D272F" stroke-width="1.5" stroke-miterlimit="10" stroke-linecap="round" stroke-linejoin="round"/>
<path d="M17.5 22H19.5C21.5 22 22.5 21 22.5 19V17C22.5 15 21.5 14 19.5 14H17.5C15.5 14 14.5 15 14.5 17V19C14.5 21 15.5 22 17.5 22Z" stroke="#1D272F" stroke-width="1.5" stroke-miterlimit="10" stroke-linecap="round" stroke-linejoin="round"/>
<path d="M5.5 22H7.5C9.5 22 10.5 21 10.5 19V17C10.5 15 9.5 14 7.5 14H5.5C3.5 14 2.5 15 2.5 17V19C2.5 21 3.5 22 5.5 22Z" stroke="#1D272F" stroke-width="1.5" stroke-miterlimit="10" stroke-linecap="round" stroke-linejoin="round"/>
</svg>
