<svg width="24" height="24" viewBox="0 0 24 24" fill="none" xmlns="http://www.w3.org/2000/svg">
<path d="M8.49016 4.22957L3.50016 6.10957C2.35016 6.53957 1.41016 7.89957 1.41016 9.11957V16.5496C1.41016 17.7296 2.19016 19.2796 3.14016 19.9896L7.44016 23.1996C8.85016 24.2596 11.1702 24.2596 12.5802 23.1996L16.8802 19.9896C17.8302 19.2796 18.6102 17.7296 18.6102 16.5496V9.11957C18.6102 7.88957 17.6702 6.52957 16.5202 6.09957L11.5302 4.22957C10.6802 3.91957 9.32016 3.91957 8.49016 4.22957Z" fill="#FD683D"/>
<path d="M10.49 2.23006L5.50003 4.11006C4.35003 4.54006 3.41003 5.90006 3.41003 7.12006V14.5501C3.41003 15.7301 4.19003 17.2801 5.14003 17.9901L9.44003 21.2001C10.85 22.2601 13.17 22.2601 14.58 21.2001L18.88 17.9901C19.83 17.2801 20.61 15.7301 20.61 14.5501V7.12006C20.61 5.89006 19.67 4.53006 18.52 4.10006L13.53 2.23006C12.68 1.92006 11.32 1.92006 10.49 2.23006Z" stroke="#1D272F" stroke-width="1.5" stroke-linecap="round" stroke-linejoin="round"/>
<path d="M12 12.5C13.1046 12.5 14 11.6046 14 10.5C14 9.39543 13.1046 8.5 12 8.5C10.8954 8.5 10 9.39543 10 10.5C10 11.6046 10.8954 12.5 12 12.5Z" stroke="#1D272F" stroke-width="1.5" stroke-miterlimit="10" stroke-linecap="round" stroke-linejoin="round"/>
<path d="M12 12.5V15.5" stroke="#1D272F" stroke-width="1.5" stroke-miterlimit="10" stroke-linecap="round" stroke-linejoin="round"/>
</svg>
