<svg width="24" height="24" viewBox="0 0 24 24" fill="none" xmlns="http://www.w3.org/2000/svg">
<path d="M14.4405 10.9004C18.0405 11.2104 19.5105 13.0604 19.5105 17.1104V17.2404C19.5105 21.7104 17.7205 23.5004 13.2505 23.5004H6.74047C2.27047 23.5004 0.480469 21.7104 0.480469 17.2404V17.1104C0.480469 13.0904 1.93047 11.2404 5.47047 10.9104" fill="#FD683D"/>
<path d="M16.44 8.8999C20.04 9.2099 21.51 11.0599 21.51 15.1099V15.2399C21.51 19.7099 19.72 21.4999 15.25 21.4999H8.73998C4.26998 21.4999 2.47998 19.7099 2.47998 15.2399V15.1099C2.47998 11.0899 3.92998 9.2399 7.46998 8.9099" stroke="#1D272F" stroke-width="1.5" stroke-linecap="round" stroke-linejoin="round"/>
<path d="M12 15.0001V3.62012" stroke="#1D272F" stroke-width="1.5" stroke-linecap="round" stroke-linejoin="round"/>
<path d="M15.35 5.85L12 2.5L8.65002 5.85" stroke="#1D272F" stroke-width="1.5" stroke-linecap="round" stroke-linejoin="round"/>
</svg>
