<svg width="24" height="24" viewBox="0 0 24 24" fill="none" xmlns="http://www.w3.org/2000/svg">
<path d="M16.3398 22C17.0598 21.85 17.7398 21.56 18.2998 21.13C19.8598 19.96 19.8598 18.03 18.2998 16.86C17.7498 16.44 17.0798 16.16 16.3698 16" fill="#FD683D"/>
<path d="M2.15973 16.56C-0.260273 18.18 -0.260273 20.82 2.15973 22.43C4.90973 24.27 9.41973 24.27 12.1697 22.43C14.5897 20.81 14.5897 18.17 12.1697 16.56C9.42973 14.73 4.91973 14.73 2.15973 16.56Z" fill="#FD683D"/>
<path d="M14.4103 6C16.3503 6 17.9103 7.57 17.9103 9.5C17.9103 11.39 16.4103 12.93 14.5403 13C14.4603 12.99 14.3703 12.99 14.2803 13" fill="#FD683D"/>
<path d="M7.16055 12.87C7.06055 12.86 6.94055 12.86 6.83055 12.87C4.45055 12.79 2.56055 10.84 2.56055 8.44C2.56055 5.99 4.54055 4 7.00055 4C9.45055 4 11.4405 5.99 11.4405 8.44C11.4305 10.84 9.54055 12.79 7.16055 12.87Z" fill="#FD683D"/>
<path d="M9.16006 10.87C9.06006 10.86 8.94006 10.86 8.83006 10.87C6.45006 10.79 4.56006 8.84 4.56006 6.44C4.56006 3.99 6.54006 2 9.00006 2C11.4501 2 13.4401 3.99 13.4401 6.44C13.4301 8.84 11.5401 10.79 9.16006 10.87Z" stroke="#1D272F" stroke-width="1.5" stroke-linecap="round" stroke-linejoin="round"/>
<path d="M16.41 4C18.35 4 19.91 5.57 19.91 7.5C19.91 9.39 18.41 10.93 16.54 11C16.46 10.99 16.37 10.99 16.28 11" stroke="#1D272F" stroke-width="1.5" stroke-linecap="round" stroke-linejoin="round"/>
<path d="M4.15997 14.56C1.73997 16.18 1.73997 18.82 4.15997 20.43C6.90997 22.27 11.42 22.27 14.17 20.43C16.59 18.81 16.59 16.17 14.17 14.56C11.43 12.73 6.91997 12.73 4.15997 14.56Z" stroke="#1D272F" stroke-width="1.5" stroke-linecap="round" stroke-linejoin="round"/>
<path d="M18.34 20C19.06 19.85 19.74 19.56 20.3 19.13C21.86 17.96 21.86 16.03 20.3 14.86C19.75 14.44 19.08 14.16 18.37 14" stroke="#1D272F" stroke-width="1.5" stroke-linecap="round" stroke-linejoin="round"/>
</svg>
